<svg xmlns="http://www.w3.org/2000/svg" width="1600" height="400" version="1.0" viewBox="0 0 1200 300"><defs><clipPath id="a"><path d="M30 0h1140a30 30 0 0 1 30 30v240a30 30 0 0 1-30 30H30a30 30 0 0 1-30-30V30A30 30 0 0 1 30 0Zm0 0"/></clipPath></defs><g clip-path="url(#a)"><path d="M-120-30h1440v360H-120z"/></g><path fill="#fff" d="M111 233c-6 0-11-2-16-5-5-2-9-6-12-11s-4-11-4-16V98c0-6 1-12 4-16 3-5 7-9 12-12s10-5 16-5h103c6 0 11 2 16 5s9 7 12 12c3 4 4 10 4 16v103c0 5-1 11-4 16s-7 9-12 11c-5 3-10 5-16 5Zm1-31h100l2-1 1-2V99l-1-2-2-1H112l-2 1-1 2v100l1 2 2 1ZM468 233l-51-60h41l43 51v9Zm-134 0V66h135c6 0 12 1 17 4s8 7 11 12 5 10 5 16v45c0 6-2 11-5 16a33 33 0 0 1-28 16l-104 1v57Zm34-89h102l1-2V99l-1-2-2-1H368l-2 1-1 2v43l1 2h2ZM589 233V65h31v69h39l57-69h34v9l-63 75 63 75v9h-34l-57-68h-39v68ZM837 233V98c0-6 2-12 4-16 3-5 7-9 12-12s11-5 16-5h103c6 0 11 2 16 5s9 7 12 12c3 4 5 10 5 16v135h-31v-56H868v56Zm31-87h106V99l-1-2-2-1H871l-2 1-1 2ZM1090 233V65h31v168Zm0 0"/></svg>